<mxfile host="drawio-plugin" modified="2023-07-19T07:20:32.448Z" agent="5.0 (X11; Linux x86_64) AppleWebKit/537.36 (KHTML, like Gecko) Chrome/104.0.5112.102 Safari/537.36" etag="SwyFHOkxIcyrdyBrV9i8" version="20.5.3" type="embed" pages="2"><diagram name="UML" id="pfmSRTUwu19f5hcoY3dl"><mxGraphModel dx="1300" dy="1017" grid="1" gridSize="10" guides="1" tooltips="1" connect="1" arrows="1" fold="1" page="1" pageScale="1" pageWidth="827" pageHeight="1169" math="0" shadow="0"><root><mxCell id="0"/><mxCell id="1" parent="0"/><mxCell id="a2NsF7wFkF-bahpW6VeY-7" value="«abstract»&lt;br&gt;&lt;b&gt;SimpleLogger&lt;/b&gt;" style="html=1;whiteSpace=wrap;" parent="1" vertex="1"><mxGeometry x="309" y="160" width="110" height="50" as="geometry"/></mxCell><mxCell id="a2NsF7wFkF-bahpW6VeY-9" style="edgeStyle=orthogonalEdgeStyle;rounded=0;orthogonalLoop=1;jettySize=auto;html=1;dashed=1;endArrow=block;endFill=0;" parent="1" source="a2NsF7wFkF-bahpW6VeY-8" target="a2NsF7wFkF-bahpW6VeY-7" edge="1"><mxGeometry relative="1" as="geometry"><Array as="points"><mxPoint x="274" y="248"/><mxPoint x="359" y="248"/></Array></mxGeometry></mxCell><mxCell id="a2NsF7wFkF-bahpW6VeY-8" value="ConsoleLogger" style="html=1;whiteSpace=wrap;" parent="1" vertex="1"><mxGeometry x="219" y="285" width="110" height="50" as="geometry"/></mxCell><mxCell id="a2NsF7wFkF-bahpW6VeY-11" style="edgeStyle=orthogonalEdgeStyle;rounded=0;orthogonalLoop=1;jettySize=auto;html=1;dashed=1;endArrow=block;endFill=0;" parent="1" source="a2NsF7wFkF-bahpW6VeY-10" target="a2NsF7wFkF-bahpW6VeY-7" edge="1"><mxGeometry relative="1" as="geometry"><Array as="points"><mxPoint x="474" y="248"/><mxPoint x="379" y="248"/></Array></mxGeometry></mxCell><mxCell id="a2NsF7wFkF-bahpW6VeY-10" value="«abstract»&lt;br&gt;&lt;b&gt;FileLogger&lt;/b&gt;" style="html=1;whiteSpace=wrap;" parent="1" vertex="1"><mxGeometry x="419" y="285" width="110" height="50" as="geometry"/></mxCell><mxCell id="a2NsF7wFkF-bahpW6VeY-14" style="edgeStyle=orthogonalEdgeStyle;rounded=0;orthogonalLoop=1;jettySize=auto;html=1;dashed=1;endArrow=block;endFill=0;" parent="1" source="a2NsF7wFkF-bahpW6VeY-12" target="a2NsF7wFkF-bahpW6VeY-10" edge="1"><mxGeometry relative="1" as="geometry"/></mxCell><mxCell id="a2NsF7wFkF-bahpW6VeY-12" value="XMLLogger" style="html=1;whiteSpace=wrap;" parent="1" vertex="1"><mxGeometry x="359" y="400" width="110" height="50" as="geometry"/></mxCell><mxCell id="a2NsF7wFkF-bahpW6VeY-15" style="edgeStyle=orthogonalEdgeStyle;rounded=0;orthogonalLoop=1;jettySize=auto;html=1;endArrow=block;endFill=0;dashed=1;" parent="1" source="a2NsF7wFkF-bahpW6VeY-13" target="a2NsF7wFkF-bahpW6VeY-10" edge="1"><mxGeometry relative="1" as="geometry"><Array as="points"><mxPoint x="554" y="368"/><mxPoint x="489" y="368"/></Array></mxGeometry></mxCell><mxCell id="a2NsF7wFkF-bahpW6VeY-13" value="JSONLogger" style="html=1;whiteSpace=wrap;" parent="1" vertex="1"><mxGeometry x="499" y="400" width="110" height="50" as="geometry"/></mxCell><mxCell id="a2NsF7wFkF-bahpW6VeY-17" style="edgeStyle=orthogonalEdgeStyle;rounded=0;orthogonalLoop=1;jettySize=auto;html=1;" parent="1" source="a2NsF7wFkF-bahpW6VeY-16" target="a2NsF7wFkF-bahpW6VeY-7" edge="1"><mxGeometry relative="1" as="geometry"/></mxCell><mxCell id="a2NsF7wFkF-bahpW6VeY-16" value="LoggerManager" style="html=1;whiteSpace=wrap;" parent="1" vertex="1"><mxGeometry x="309" y="40" width="110" height="50" as="geometry"/></mxCell></root></mxGraphModel></diagram><diagram id="WHLJkhYo0cZqM9wEUuJj" name="Domain"><mxGraphModel dx="1300" dy="1017" grid="1" gridSize="10" guides="1" tooltips="1" connect="1" arrows="1" fold="1" page="1" pageScale="1" pageWidth="850" pageHeight="1100" math="0" shadow="0"><root><mxCell id="0"/><mxCell id="1" parent="0"/><mxCell id="dEPa-DV1aZe3tuKorKyh-8" style="edgeStyle=orthogonalEdgeStyle;rounded=0;orthogonalLoop=1;jettySize=auto;html=1;entryX=0.5;entryY=0;entryDx=0;entryDy=0;" edge="1" parent="1" source="dEPa-DV1aZe3tuKorKyh-1" target="dEPa-DV1aZe3tuKorKyh-6"><mxGeometry relative="1" as="geometry"><Array as="points"><mxPoint x="360" y="540"/><mxPoint x="260" y="540"/></Array></mxGeometry></mxCell><mxCell id="dEPa-DV1aZe3tuKorKyh-10" value="Persists In" style="edgeLabel;html=1;align=center;verticalAlign=middle;resizable=0;points=[];" vertex="1" connectable="0" parent="dEPa-DV1aZe3tuKorKyh-8"><mxGeometry x="-0.2889" y="2" relative="1" as="geometry"><mxPoint x="54" y="-22" as="offset"/></mxGeometry></mxCell><mxCell id="dEPa-DV1aZe3tuKorKyh-9" style="edgeStyle=orthogonalEdgeStyle;rounded=0;orthogonalLoop=1;jettySize=auto;html=1;" edge="1" parent="1" source="dEPa-DV1aZe3tuKorKyh-1" target="dEPa-DV1aZe3tuKorKyh-7"><mxGeometry relative="1" as="geometry"><Array as="points"><mxPoint x="360" y="540"/><mxPoint x="460" y="540"/></Array></mxGeometry></mxCell><mxCell id="dEPa-DV1aZe3tuKorKyh-12" style="edgeStyle=orthogonalEdgeStyle;rounded=0;orthogonalLoop=1;jettySize=auto;html=1;" edge="1" parent="1" source="dEPa-DV1aZe3tuKorKyh-1" target="dEPa-DV1aZe3tuKorKyh-11"><mxGeometry relative="1" as="geometry"/></mxCell><mxCell id="dEPa-DV1aZe3tuKorKyh-1" value="Log Event" style="rounded=1;whiteSpace=wrap;html=1;" vertex="1" parent="1"><mxGeometry x="300" y="440" width="120" height="60" as="geometry"/></mxCell><mxCell id="dEPa-DV1aZe3tuKorKyh-4" style="edgeStyle=orthogonalEdgeStyle;rounded=0;orthogonalLoop=1;jettySize=auto;html=1;" edge="1" parent="1" source="dEPa-DV1aZe3tuKorKyh-3" target="dEPa-DV1aZe3tuKorKyh-1"><mxGeometry relative="1" as="geometry"/></mxCell><mxCell id="dEPa-DV1aZe3tuKorKyh-5" value="Creates" style="edgeLabel;html=1;align=center;verticalAlign=middle;resizable=0;points=[];" vertex="1" connectable="0" parent="dEPa-DV1aZe3tuKorKyh-4"><mxGeometry x="-0.2667" y="-4" relative="1" as="geometry"><mxPoint x="34" y="17" as="offset"/></mxGeometry></mxCell><mxCell id="dEPa-DV1aZe3tuKorKyh-3" value="System" style="rounded=1;whiteSpace=wrap;html=1;" vertex="1" parent="1"><mxGeometry x="300" y="290" width="120" height="60" as="geometry"/></mxCell><mxCell id="dEPa-DV1aZe3tuKorKyh-6" value="File" style="rounded=1;whiteSpace=wrap;html=1;" vertex="1" parent="1"><mxGeometry x="200" y="580" width="120" height="60" as="geometry"/></mxCell><mxCell id="dEPa-DV1aZe3tuKorKyh-7" value="Console" style="rounded=1;whiteSpace=wrap;html=1;" vertex="1" parent="1"><mxGeometry x="400" y="580" width="120" height="60" as="geometry"/></mxCell><mxCell id="dEPa-DV1aZe3tuKorKyh-11" value="Configuration" style="rounded=1;whiteSpace=wrap;html=1;" vertex="1" parent="1"><mxGeometry x="520" y="440" width="120" height="60" as="geometry"/></mxCell></root></mxGraphModel></diagram></mxfile>